#Comment line ignore any data following # character 
#Hierarchical Translation and Rotation (.htr) file 
[Header]	
#Header keywords are followed by a single value 
FileType HTR		#Single word string
DataType HTRS		#Translation followed by rotation and scale data
FileVersion 1		#integer
NumSegments 84		#integer
NumFrames 2		#integer
DataFrameRate 30		#integer, data frame rate in this file
EulerRotationOrder ZYX
CalibrationUnits mm
RotationUnits Degrees
GlobalAxisofGravity Y
BoneLengthAxis Y
ScaleFactor 1.00
[SegmentNames&Hierarchy]
#CHILD	PARENT
MASTER GLOBAL
root MASTER
chest root
L_mid_tent01 root
R_mid_tent01 root
spine01 root
Bip01_Neck chest
L_humerus chest
R_humerus chest
weapon_bone chest
Bip01_Head Bip01_Neck
eye_left_bone Bip01_Head
eye_right_bone Bip01_Head
L_forearm L_humerus
L_front_hand L_forearm
L_weapon_bone L_forearm
L_front_hand01_01 L_front_hand
L_front_hand02_01 L_front_hand
L_front_hand03_01 L_front_hand
L_front_hand01_02 L_front_hand01_01
L_front_hand02_02 L_front_hand02_01
L_front_hand03_02 L_front_hand03_01
R_forearm R_humerus
R_front_hand R_forearm
R_weapon_bone R_forearm
R_front_hand01_01 R_front_hand
R_front_hand02_01 R_front_hand
R_front_hand03_01 R_front_hand
R_front_hand01_02 R_front_hand01_01
R_front_hand02_02 R_front_hand02_01
R_front_hand03_02 R_front_hand03_01
null_rope01_connect L_mid_tent01
Rope1_Seg01 null_rope01_connect
Rope1_Seg02 Rope1_Seg01
Rope1_Seg03 Rope1_Seg02
Rope1_Seg04 Rope1_Seg03
Rope1_Seg05 Rope1_Seg04
Rope1_Seg06 Rope1_Seg05
Rope1_Seg07 Rope1_Seg06
Rope1_Seg09 Rope1_Seg07
L_mid_hand01 Rope1_Seg09
L_mid_hand02 Rope1_Seg09
L_mid_hand03 Rope1_Seg09
null_rope02_connect R_mid_tent01
Rope2_Seg01 null_rope02_connect
Rope2_Seg02 Rope2_Seg01
Rope2_Seg03 Rope2_Seg02
Rope2_Seg04 Rope2_Seg03
Rope2_Seg05 Rope2_Seg04
Rope2_Seg06 Rope2_Seg05
Rope2_Seg07 Rope2_Seg06
Rope2_Seg09 Rope2_Seg07
R_mid_hand01 Rope2_Seg09
R_mid_hand02 Rope2_Seg09
R_mid_hand03 Rope2_Seg09
spine02 spine01
spine03 spine02
pelvis spine03
null_rope03_connect pelvis
null_rope04_connect pelvis
Rope3_Seg01 null_rope03_connect
Rope3_Seg02 Rope3_Seg01
Rope3_Seg03 Rope3_Seg02
Rope3_Seg04 Rope3_Seg03
Rope3_Seg05 Rope3_Seg04
Rope3_Seg06 Rope3_Seg05
Rope3_Seg07 Rope3_Seg06
Rope3_Seg08 Rope3_Seg07
Rope3_Seg09 Rope3_Seg08
R_rear_hand01 Rope3_Seg09
R_rear_hand02 Rope3_Seg09
R_rear_hand03 Rope3_Seg09
Rope4_Seg01 null_rope04_connect
Rope4_Seg02 Rope4_Seg01
Rope4_Seg03 Rope4_Seg02
Rope4_Seg04 Rope4_Seg03
Rope4_Seg05 Rope4_Seg04
Rope4_Seg06 Rope4_Seg05
Rope4_Seg07 Rope4_Seg06
Rope4_Seg08 Rope4_Seg07
Rope4_Seg09 Rope4_Seg08
L_rear_hand01 Rope4_Seg09
L_rear_hand02 Rope4_Seg09
L_rear_hand03 Rope4_Seg09
[BasePosition]
#SegmentName Tx, Ty, Tz, Rx, Ry, Rz, BoneLength
MASTER 0.000000 0.000000 0.000000 -90.000000 0.000000 0.000000 10.000000 
root 0.000000 0.000000 0.000000 0.000000 0.000000 0.000000 10.000000 
chest 0.000000 0.000000 0.000000 0.000000 0.000000 0.000000 10.000000 
L_mid_tent01 0.000000 0.000000 0.000000 0.000000 0.000000 0.000000 10.000000 
R_mid_tent01 0.000000 0.000000 0.000000 0.000000 0.000000 0.000000 10.000000 
spine01 0.000000 0.000000 0.000000 0.000000 0.000000 0.000000 10.000000 
Bip01_Neck 0.000000 0.000000 0.000000 0.000000 0.000000 0.000000 10.000000 
L_humerus 0.000000 0.000000 0.000000 0.000000 0.000000 0.000000 10.000000 
R_humerus 0.000000 0.000000 0.000000 0.000000 0.000000 0.000000 10.000000 
weapon_bone 0.000000 0.000000 0.000000 0.000000 0.000000 0.000000 10.000000 
Bip01_Head 0.000000 0.000000 0.000000 0.000000 0.000000 0.000000 10.000000 
eye_left_bone 0.000000 0.000000 0.000000 0.000000 0.000000 0.000000 10.000000 
eye_right_bone 0.000000 0.000000 0.000000 0.000000 0.000000 0.000000 10.000000 
L_forearm 0.000000 0.000000 0.000000 0.000000 0.000000 0.000000 10.000000 
L_front_hand 0.000000 0.000000 0.000000 0.000000 0.000000 0.000000 10.000000 
L_weapon_bone 0.000000 0.000000 0.000000 0.000000 0.000000 0.000000 10.000000 
L_front_hand01_01 0.000000 0.000000 0.000000 0.000000 0.000000 0.000000 10.000000 
L_front_hand02_01 0.000000 0.000000 0.000000 0.000000 0.000000 0.000000 10.000000 
L_front_hand03_01 0.000000 0.000000 0.000000 0.000000 0.000000 0.000000 10.000000 
L_front_hand01_02 0.000000 0.000000 0.000000 0.000000 0.000000 0.000000 10.000000 
L_front_hand02_02 0.000000 0.000000 0.000000 0.000000 0.000000 0.000000 10.000000 
L_front_hand03_02 0.000000 0.000000 0.000000 0.000000 0.000000 0.000000 10.000000 
R_forearm 0.000000 0.000000 0.000000 0.000000 0.000000 0.000000 10.000000 
R_front_hand 0.000000 0.000000 0.000000 0.000000 0.000000 0.000000 10.000000 
R_weapon_bone 0.000000 0.000000 0.000000 0.000000 0.000000 0.000000 10.000000 
R_front_hand01_01 0.000000 0.000000 0.000000 0.000000 0.000000 0.000000 10.000000 
R_front_hand02_01 0.000000 0.000000 0.000000 0.000000 0.000000 0.000000 10.000000 
R_front_hand03_01 0.000000 0.000000 0.000000 0.000000 0.000000 0.000000 10.000000 
R_front_hand01_02 0.000000 0.000000 0.000000 0.000000 0.000000 0.000000 10.000000 
R_front_hand02_02 0.000000 0.000000 0.000000 0.000000 0.000000 0.000000 10.000000 
R_front_hand03_02 0.000000 0.000000 0.000000 0.000000 0.000000 0.000000 10.000000 
null_rope01_connect 0.000000 0.000000 0.000000 0.000000 0.000000 0.000000 10.000000 
Rope1_Seg01 0.000000 0.000000 0.000000 0.000000 0.000000 0.000000 10.000000 
Rope1_Seg02 0.000000 0.000000 0.000000 0.000000 0.000000 0.000000 10.000000 
Rope1_Seg03 0.000000 0.000000 0.000000 0.000000 0.000000 0.000000 10.000000 
Rope1_Seg04 0.000000 0.000000 0.000000 0.000000 0.000000 0.000000 10.000000 
Rope1_Seg05 0.000000 0.000000 0.000000 0.000000 0.000000 0.000000 10.000000 
Rope1_Seg06 0.000000 0.000000 0.000000 0.000000 0.000000 0.000000 10.000000 
Rope1_Seg07 0.000000 0.000000 0.000000 0.000000 0.000000 0.000000 10.000000 
Rope1_Seg09 0.000000 0.000000 0.000000 0.000000 0.000000 0.000000 10.000000 
L_mid_hand01 0.000000 0.000000 0.000000 0.000000 0.000000 0.000000 10.000000 
L_mid_hand02 0.000000 0.000000 0.000000 0.000000 0.000000 0.000000 10.000000 
L_mid_hand03 0.000000 0.000000 0.000000 0.000000 0.000000 0.000000 10.000000 
null_rope02_connect 0.000000 0.000000 0.000000 0.000000 0.000000 0.000000 10.000000 
Rope2_Seg01 0.000000 0.000000 0.000000 0.000000 0.000000 0.000000 10.000000 
Rope2_Seg02 0.000000 0.000000 0.000000 0.000000 0.000000 0.000000 10.000000 
Rope2_Seg03 0.000000 0.000000 0.000000 0.000000 0.000000 0.000000 10.000000 
Rope2_Seg04 0.000000 0.000000 0.000000 0.000000 0.000000 0.000000 10.000000 
Rope2_Seg05 0.000000 0.000000 0.000000 0.000000 0.000000 0.000000 10.000000 
Rope2_Seg06 0.000000 0.000000 0.000000 0.000000 0.000000 0.000000 10.000000 
Rope2_Seg07 0.000000 0.000000 0.000000 0.000000 0.000000 0.000000 10.000000 
Rope2_Seg09 0.000000 0.000000 0.000000 0.000000 0.000000 0.000000 10.000000 
R_mid_hand01 0.000000 0.000000 0.000000 0.000000 0.000000 0.000000 10.000000 
R_mid_hand02 0.000000 0.000000 0.000000 0.000000 0.000000 0.000000 10.000000 
R_mid_hand03 0.000000 0.000000 0.000000 0.000000 0.000000 0.000000 10.000000 
spine02 0.000000 0.000000 0.000000 0.000000 0.000000 0.000000 10.000000 
spine03 0.000000 0.000000 0.000000 0.000000 0.000000 0.000000 10.000000 
pelvis 0.000000 0.000000 0.000000 0.000000 0.000000 0.000000 10.000000 
null_rope03_connect 0.000000 0.000000 0.000000 0.000000 0.000000 0.000000 10.000000 
null_rope04_connect 0.000000 0.000000 0.000000 0.000000 0.000000 0.000000 10.000000 
Rope3_Seg01 0.000000 0.000000 0.000000 0.000000 0.000000 0.000000 10.000000 
Rope3_Seg02 0.000000 0.000000 0.000000 0.000000 0.000000 0.000000 10.000000 
Rope3_Seg03 0.000000 0.000000 0.000000 0.000000 0.000000 0.000000 10.000000 
Rope3_Seg04 0.000000 0.000000 0.000000 0.000000 0.000000 0.000000 10.000000 
Rope3_Seg05 0.000000 0.000000 0.000000 0.000000 0.000000 0.000000 10.000000 
Rope3_Seg06 0.000000 0.000000 0.000000 0.000000 0.000000 0.000000 10.000000 
Rope3_Seg07 0.000000 0.000000 0.000000 0.000000 0.000000 0.000000 10.000000 
Rope3_Seg08 0.000000 0.000000 0.000000 0.000000 0.000000 0.000000 10.000000 
Rope3_Seg09 0.000000 0.000000 0.000000 0.000000 0.000000 0.000000 10.000000 
R_rear_hand01 0.000000 0.000000 0.000000 0.000000 0.000000 0.000000 10.000000 
R_rear_hand02 0.000000 0.000000 0.000000 0.000000 0.000000 0.000000 10.000000 
R_rear_hand03 0.000000 0.000000 0.000000 0.000000 0.000000 0.000000 10.000000 
Rope4_Seg01 0.000000 0.000000 0.000000 0.000000 0.000000 0.000000 10.000000 
Rope4_Seg02 0.000000 0.000000 0.000000 0.000000 0.000000 0.000000 10.000000 
Rope4_Seg03 0.000000 0.000000 0.000000 0.000000 0.000000 0.000000 10.000000 
Rope4_Seg04 0.000000 0.000000 0.000000 0.000000 0.000000 0.000000 10.000000 
Rope4_Seg05 0.000000 0.000000 0.000000 0.000000 0.000000 0.000000 10.000000 
Rope4_Seg06 0.000000 0.000000 0.000000 0.000000 0.000000 0.000000 10.000000 
Rope4_Seg07 0.000000 0.000000 0.000000 0.000000 0.000000 0.000000 10.000000 
Rope4_Seg08 0.000000 0.000000 0.000000 0.000000 0.000000 0.000000 10.000000 
Rope4_Seg09 0.000000 0.000000 0.000000 0.000000 0.000000 0.000000 10.000000 
L_rear_hand01 0.000000 0.000000 0.000000 0.000000 0.000000 0.000000 10.000000 
L_rear_hand02 0.000000 0.000000 0.000000 0.000000 0.000000 0.000000 10.000000 
L_rear_hand03 0.000000 0.000000 0.000000 0.000000 0.000000 0.000000 10.000000 
#Beginning of Data. Separated by tabs
#Fr	Tx	Ty	Tz	Rx	Ry	Rz	SF
[MASTER]
4 -533.380005 -472.650604 0.000000 0.000018 0.002347 -89.142899 712.666016
5 -679.832275 -642.361877 0.000000 0.000030 0.002347 -88.512825 935.307800
[root]
4 -62.822132 81.005470 1146.583252 -93.257851 -6.045174 178.444824 1151.156616
5 -62.822140 73.653648 1134.831787 -95.782440 -6.601337 177.878403 1138.953369
[chest]
4 -84.512650 -34.090519 0.000000 6.273745 -0.743487 156.387787 91.129311
5 -84.512650 -34.090519 0.000000 8.709824 -0.746472 156.383987 91.129311
[L_mid_tent01]
4 23.228750 24.509907 -223.761200 -9.439424 13.485767 -4.940154 226.294907
5 23.228750 24.509907 -223.761200 -9.944358 15.231411 -7.409046 226.294907
[R_mid_tent01]
4 23.228794 24.509907 226.238495 -158.775772 -18.836382 -26.962831 228.744751
5 23.228794 24.509907 226.238495 -158.328629 -21.899351 -28.242527 228.744751
[spine01]
4 -0.361383 -0.195265 0.000000 0.001815 0.001488 11.320961 0.410763
5 -0.361383 -0.195265 0.000000 0.001815 0.001488 11.320963 0.410763
[Bip01_Neck]
4 165.484543 71.581718 0.000119 175.896118 1.177290 24.871185 180.302734
5 165.484543 71.581718 0.000119 175.896118 1.177290 24.871183 180.302734
[L_humerus]
4 -13.983130 -135.272980 -120.471481 148.377228 60.824482 -115.762375 181.680161
5 -13.983130 -135.272980 -120.471481 156.468704 46.566093 -110.408508 181.680161
[R_humerus]
4 -13.983309 -135.273102 125.287651 -161.713089 -53.841946 -102.716606 184.909012
5 -13.983309 -135.273102 125.287651 -163.613708 -38.472427 -102.442955 184.909012
[weapon_bone]
4 235.964890 -300.705902 0.000000 0.000000 -89.951546 -128.212341 382.234833
5 235.964890 -300.705902 0.000000 0.000000 -89.951546 -128.212341 382.234833
[Bip01_Head]
4 201.313782 211.516800 15.929749 9.999763 9.310405 -68.599800 292.438629
5 201.313782 211.516800 15.929758 12.657395 8.720618 -70.116814 292.438629
[eye_left_bone]
4 -24.626970 125.451866 -64.772606 0.000000 -90.000000 -99.840431 143.318359
5 -24.626970 125.451866 -64.772606 0.000000 -90.000000 -99.840431 143.318359
[eye_right_bone]
4 -24.626970 125.451866 64.327362 0.000000 -89.965736 80.156380 143.117676
5 -24.626970 125.451866 64.327362 0.000000 -89.965736 80.156380 143.117676
[L_forearm]
4 322.776093 0.000000 -0.000119 0.000357 -0.002320 -107.506004 322.776093
5 322.776093 0.000000 -0.000119 0.000357 -0.002320 -107.506004 322.776093
[L_front_hand]
4 241.149185 -0.042021 -3.300071 -179.431961 -2.195943 -5.942918 241.171753
5 241.149185 -0.042021 -3.300071 -179.431961 -2.195943 -5.942918 241.171753
[L_weapon_bone]
4 156.183838 0.000000 0.000000 0.000014 0.000007 0.000001 156.183838
5 156.183838 0.000000 0.000000 0.000014 0.000007 0.000001 156.183838
[L_front_hand01_01]
4 86.095154 20.947098 -0.655860 0.139491 -0.584553 24.181786 88.609184
5 86.095154 20.947098 -0.655860 0.139491 -0.584553 24.181786 88.609184
[L_front_hand02_01]
4 86.935165 -11.437475 24.513514 119.190460 -21.905655 -12.119137 91.046425
5 86.935165 -11.437475 24.513514 119.190460 -21.905655 -12.119137 91.046425
[L_front_hand03_01]
4 86.637497 -14.123976 -20.424902 -120.437630 20.554031 -14.327168 90.126129
5 86.637497 -14.123976 -20.424902 -120.437630 20.554031 -14.327168 90.126129
[L_front_hand01_02]
4 71.020905 -0.000179 0.000030 0.000334 -0.002323 -106.379684 71.020905
5 71.020905 -0.000179 0.000030 0.000334 -0.002323 -106.379684 71.020905
[L_front_hand02_02]
4 71.020927 -0.000119 0.000060 0.000334 -0.002323 -106.379684 71.020927
5 71.020927 -0.000119 0.000060 0.000334 -0.002323 -106.379684 71.020927
[L_front_hand03_02]
4 71.020905 -0.000060 0.000060 0.000334 -0.002323 -106.379684 71.020905
5 71.020905 -0.000060 0.000060 0.000334 -0.002323 -106.379684 71.020905
[R_forearm]
4 322.776428 -0.000060 0.000030 0.196737 0.083011 -114.368637 322.776428
5 322.776428 -0.000060 0.000030 0.196737 0.083011 -114.368637 322.776428
[R_front_hand]
4 238.847015 -0.006795 2.210259 -0.341870 1.692705 -0.151780 238.857239
5 238.847015 -0.006795 2.210259 -0.341870 1.692705 -0.151779 238.857239
[R_weapon_bone]
4 155.664093 0.002503 -0.000030 0.003487 0.001180 -90.988930 155.664078
5 155.664093 0.002503 -0.000030 0.003487 0.001180 -90.988930 155.664078
[R_front_hand01_01]
4 87.624611 14.231146 22.918642 -119.218056 -22.033409 12.303375 91.683487
5 87.624611 14.231146 22.918642 -119.218056 -22.033409 12.303375 91.683487
[R_front_hand02_01]
4 89.356956 14.367283 -19.491137 120.545532 20.947184 14.823009 92.579636
5 89.356956 14.367283 -19.491137 120.545532 20.947184 14.823009 92.579636
[R_front_hand03_01]
4 87.286232 -22.307278 -0.143439 -0.231628 -0.392922 -24.567768 90.091743
5 87.286232 -22.307278 -0.143439 -0.231628 -0.392922 -24.567768 90.091743
[R_front_hand01_02]
4 71.020905 0.000060 0.000119 0.002323 -0.000334 106.381714 71.020905
5 71.020905 0.000060 0.000119 0.002323 -0.000334 106.381714 71.020905
[R_front_hand02_02]
4 71.020844 -0.000030 -0.000119 0.002323 -0.000334 106.381714 71.020836
5 71.020844 -0.000030 -0.000119 0.002323 -0.000334 106.381714 71.020836
[R_front_hand03_02]
4 71.020905 0.000000 0.000030 0.002323 -0.000334 106.381714 71.020905
5 71.020905 0.000000 0.000030 0.002323 -0.000334 106.381714 71.020905
[null_rope01_connect]
4 328.732483 0.000000 -0.000238 121.943291 71.132980 42.152554 328.732483
5 328.732483 0.000000 -0.000238 122.397316 68.166718 45.837490 328.732483
[Rope1_Seg01]
4 -0.000004 0.000034 0.000015 63.796619 -2.530733 51.968781 0.000038
5 -0.000005 0.000033 0.000020 46.991905 1.205858 60.482788 0.000039
[Rope1_Seg02]
4 139.999863 -0.000179 0.000000 1.322397 -0.952712 -0.019227 139.999863
5 139.999863 -0.000179 0.000000 8.660287 -2.808910 -2.458693 139.999863
[Rope1_Seg03]
4 139.999924 0.000060 -0.000060 1.614055 -1.220131 0.004255 139.999924
5 139.999924 0.000060 -0.000060 10.614748 -4.102602 -2.626261 139.999924
[Rope1_Seg04]
4 139.999924 -0.000060 -0.000119 5.995308 -3.475776 -1.419116 139.999924
5 139.999924 -0.000060 -0.000119 23.175100 -10.561892 -6.454310 139.999924
[Rope1_Seg05]
4 139.999832 0.000119 -0.000060 13.976332 -9.111095 -3.836741 139.999832
5 139.999832 0.000119 -0.000060 6.749002 -7.179294 1.047168 139.999832
[Rope1_Seg06]
4 139.999954 0.000119 -0.000060 -29.487354 19.238970 9.212511 139.999954
5 139.999954 0.000119 -0.000060 -26.881998 17.544300 5.940605 139.999954
[Rope1_Seg07]
4 139.999985 0.000060 0.000000 -22.475418 12.569472 17.064711 139.999985
5 139.999985 0.000060 0.000000 -12.002225 5.512257 5.932335 139.999985
[Rope1_Seg09]
4 121.602913 0.000119 -0.000089 -89.793175 -1.359789 0.847147 121.602913
5 121.602913 0.000119 -0.000089 -89.793175 -1.359789 0.847147 121.602913
[L_mid_hand01]
4 103.859421 1.038730 8.195221 106.855484 -31.239275 -9.461397 104.187431
5 103.859421 1.038730 8.195221 106.855484 -31.239275 -9.461397 104.187431
[L_mid_hand02]
4 105.572853 -4.139662 -10.864139 -142.331345 25.752670 -28.774628 106.211075
5 105.572853 -4.139662 -10.864139 -142.331345 25.752670 -28.774628 106.211075
[L_mid_hand03]
4 104.641464 17.579376 -3.913581 -16.122810 9.734291 34.223598 106.179977
5 104.641464 17.579376 -3.913581 -16.122810 9.734291 34.223598 106.179977
[null_rope02_connect]
4 328.732849 0.000179 -0.000119 101.663597 -63.734348 139.604477 328.732849
5 328.732849 0.000179 -0.000119 92.166534 -61.577805 148.708984 328.732849
[Rope2_Seg01]
4 -0.000110 -0.000137 -0.000153 90.833405 -21.291126 63.193771 0.000233
5 -0.000111 -0.000132 -0.000153 88.852692 -20.617128 68.131752 0.000231
[Rope2_Seg02]
4 139.999741 -0.000060 -0.000119 0.041561 0.728961 -0.725114 139.999756
5 139.999741 -0.000060 -0.000119 0.029983 0.432031 -0.359267 139.999756
[Rope2_Seg03]
4 140.000107 0.000030 0.000000 0.068581 0.917193 -0.907836 140.000107
5 140.000107 0.000030 0.000000 0.044077 0.535973 -0.448195 140.000107
[Rope2_Seg04]
4 139.999802 0.000000 -0.000060 0.098077 1.194673 -1.189313 139.999802
5 139.999802 0.000000 -0.000060 0.057540 0.689414 -0.576654 139.999802
[Rope2_Seg05]
4 139.999985 -0.000060 0.000119 0.111610 1.645457 -1.643880 139.999985
5 139.999985 -0.000060 0.000119 0.039837 0.931749 -0.779470 139.999985
[Rope2_Seg06]
4 139.999893 -0.000030 -0.000119 0.724849 -0.025795 -3.480871 139.999893
5 139.999893 -0.000030 -0.000119 0.098234 0.838377 -0.996692 139.999893
[Rope2_Seg07]
4 139.999893 0.000060 -0.000060 1.194751 2.203461 -5.953887 139.999893
5 139.999893 0.000060 -0.000060 0.308542 0.668921 -1.658382 139.999893
[Rope2_Seg09]
4 121.338966 0.000089 -0.000060 33.793236 -1.359788 -0.847141 121.338966
5 121.338966 0.000089 -0.000060 33.793236 -1.359788 -0.847141 121.338966
[R_mid_hand01]
4 104.680779 11.144459 -10.335981 -41.523792 25.424656 28.595957 105.778534
5 104.680779 11.144459 -10.335981 -41.523792 25.424656 28.595957 105.778534
[R_mid_hand02]
4 104.070427 2.443552 8.231699 72.847389 -32.746803 10.013901 104.424065
5 104.070427 2.443552 8.231699 72.847389 -32.746803 10.013901 104.424065
[R_mid_hand03]
4 106.028137 -11.221827 -5.996406 -167.901306 10.259192 -37.009720 106.788818
5 106.028137 -11.221827 -5.996406 -167.901306 10.259192 -37.009720 106.788818
[spine02]
4 129.756927 0.001550 0.000119 0.001147 -1.797838 -7.854275 129.756927
5 129.756927 0.001550 0.000119 0.001147 -1.797837 -7.854275 129.756927
[spine03]
4 79.115631 0.000000 -0.000119 1.459971 -2.848092 23.765963 79.115631
5 79.115631 0.000000 -0.000119 1.459971 -2.848092 23.765963 79.115631
[pelvis]
4 169.435242 0.051022 0.000000 -0.000005 0.000003 -4.322055 169.435257
5 169.435242 0.051022 0.000000 -0.000005 0.000003 -4.322055 169.435257
[null_rope03_connect]
4 -1.257226 -2.466202 137.391083 -106.594284 86.890640 146.352112 137.418976
5 -1.257226 -2.466202 137.391083 -141.269394 85.601448 112.137070 137.418976
[null_rope04_connect]
4 -1.259640 -2.480268 -137.844437 -106.594284 86.890640 146.352112 137.872513
5 -1.259640 -2.480268 -137.844437 -141.269394 85.601448 112.137070 137.872513
[Rope3_Seg01]
4 -0.000027 -0.000064 0.000015 -129.777176 -0.752126 85.850822 0.000071
5 -0.000023 -0.000063 0.000020 -130.671219 1.228271 98.629745 0.000070
[Rope3_Seg02]
4 139.999924 -0.000119 0.000060 0.043060 -1.021683 -1.314360 139.999924
5 139.999924 -0.000119 0.000060 0.284123 3.125956 0.741657 139.999924
[Rope3_Seg03]
4 139.999924 -0.000119 0.000119 0.041911 -1.179929 -1.507328 139.999924
5 139.999924 -0.000119 0.000119 0.418435 3.565156 0.831127 139.999924
[Rope3_Seg04]
4 139.999924 0.000119 0.000000 0.134217 -0.500492 -2.036677 139.999924
5 139.999924 0.000119 0.000000 0.938503 6.186668 1.295625 139.999924
[Rope3_Seg05]
4 139.999924 -0.000238 0.000060 0.376219 0.060028 -2.708649 139.999924
5 139.999924 -0.000238 0.000060 1.996028 8.134076 1.547011 139.999924
[Rope3_Seg06]
4 139.999893 -0.000119 -0.000060 -0.002679 -6.243104 -0.919465 139.999893
5 139.999893 -0.000119 -0.000060 -0.592431 -4.031388 -0.274421 139.999893
[Rope3_Seg07]
4 139.999771 0.000060 -0.000119 0.295092 -9.779737 0.631639 139.999771
5 139.999771 0.000060 -0.000119 -1.461750 -13.799891 -1.699791 139.999771
[Rope3_Seg08]
4 139.999985 -0.000060 0.000000 0.787903 -5.702674 -0.077199 139.999985
5 139.999985 -0.000060 0.000000 0.160026 -7.207826 -1.019351 139.999985
[Rope3_Seg09]
4 90.185997 -0.000179 -0.000060 89.793228 -1.359877 -0.847183 90.185997
5 90.185997 -0.000179 -0.000060 89.793228 -1.359877 -0.847183 90.185997
[R_rear_hand01]
4 103.366196 -6.073594 -10.757982 -161.551193 16.666374 -30.088671 104.101845
5 103.366196 -6.073594 -10.757982 -161.551193 16.666374 -30.088671 104.101845
[R_rear_hand02]
4 100.509819 12.039542 -7.992327 -34.280552 19.289745 28.875523 101.543350
5 100.509819 12.039542 -7.992327 -34.280552 19.289745 28.875523 101.543350
[R_rear_hand03]
4 101.539970 5.215704 5.435467 83.366440 -30.933914 7.284830 101.819031
5 101.539970 5.215704 5.435467 83.366440 -30.933914 7.284830 101.819031
[Rope4_Seg01]
4 0.000053 0.000112 0.000000 46.664391 -1.310848 70.291672 0.000124
5 0.000046 0.000111 0.000000 48.251575 7.347223 97.550598 0.000120
[Rope4_Seg02]
4 139.999985 0.000060 0.000119 0.770780 3.502674 9.223743 139.999985
5 139.999985 0.000060 0.000119 -1.895603 -16.399864 0.439775 139.999985
[Rope4_Seg03]
4 139.999924 0.000000 -0.000238 -0.011182 0.690354 5.260799 139.999924
5 139.999924 0.000000 -0.000238 -0.105910 -9.460310 -0.019350 139.999924
[Rope4_Seg04]
4 139.999985 0.000000 0.000119 -0.147055 -0.498571 3.474740 139.999985
5 139.999985 0.000000 0.000119 0.269638 -5.678301 -0.011710 139.999985
[Rope4_Seg05]
4 139.999802 -0.000060 -0.000119 0.130291 2.251282 0.756115 139.999802
5 139.999802 -0.000060 -0.000119 0.060901 0.323150 -0.037736 139.999802
[Rope4_Seg06]
4 139.999924 0.000000 0.000060 0.586219 5.588057 -1.009584 139.999924
5 139.999924 0.000000 0.000060 -0.076936 4.943869 -0.100667 139.999924
[Rope4_Seg07]
4 139.999802 0.000000 0.000000 1.560997 9.110460 -2.290543 139.999802
5 139.999802 0.000000 0.000000 0.318125 10.471952 -0.177771 139.999802
[Rope4_Seg08]
4 139.999924 0.000000 0.000119 -0.007445 6.419861 -1.222284 139.999924
5 139.999924 0.000000 0.000119 -0.885930 6.908883 -0.175686 139.999924
[Rope4_Seg09]
4 90.185791 0.000060 0.000060 -135.617828 2.228885 0.850567 90.185791
5 90.185791 0.000060 0.000060 -135.617828 2.228885 0.850567 90.185791
[L_rear_hand01]
4 101.696655 -8.392275 -7.654577 -34.454281 -18.946800 151.655121 102.329041
5 101.696655 -8.392275 -7.654577 -34.454281 -18.946800 151.655121 102.329041
[L_rear_hand02]
4 102.726799 -1.568258 5.773216 83.407906 30.330435 172.796509 102.900848
5 102.726799 -1.568258 5.773216 83.407906 30.330435 172.796509 102.900848
[L_rear_hand03]
4 104.552910 9.721220 -10.420293 -161.379868 -16.473232 -150.512238 105.519653
5 104.552910 9.721220 -10.420293 -161.379868 -16.473232 -150.512238 105.519653
